<mxfile host="app.diagrams.net" modified="2021-04-22T10:54:49.681Z" agent="5.0 (Macintosh; Intel Mac OS X 11_2_3) AppleWebKit/537.36 (KHTML, like Gecko) Chrome/89.0.4389.128 Safari/537.36" etag="Oy2olhJ1cGPg6sxhwudM" version="14.6.3" type="github" pages="3">
  <diagram id="piDafpqhtRUU5qUU-vj8" name="Page-1">
    <mxGraphModel dx="4038" dy="3176" grid="1" gridSize="10" guides="1" tooltips="1" connect="1" arrows="1" fold="1" page="1" pageScale="1" pageWidth="827" pageHeight="1169" math="0" shadow="0">
      <root>
        <mxCell id="0" />
        <mxCell id="1" parent="0" />
        <mxCell id="fRU2j8EBehlVzUUTuP8I-1" value="" style="strokeWidth=1;shadow=0;dashed=0;align=center;html=1;shape=mxgraph.mockup.containers.browserWindow;rSize=0;strokeColor=#666666;strokeColor2=#008cff;strokeColor3=#c4c4c4;mainText=,;recursiveResize=0;" parent="1" vertex="1">
          <mxGeometry x="-740" y="40" width="1190" height="880" as="geometry" />
        </mxCell>
        <mxCell id="fRU2j8EBehlVzUUTuP8I-2" value="Page 1" style="strokeWidth=1;shadow=0;dashed=0;align=center;html=1;shape=mxgraph.mockup.containers.anchor;fontSize=17;fontColor=#666666;align=left;" parent="fRU2j8EBehlVzUUTuP8I-1" vertex="1">
          <mxGeometry x="60" y="12" width="110" height="26" as="geometry" />
        </mxCell>
        <mxCell id="fRU2j8EBehlVzUUTuP8I-3" value="https://acebook-team1.herokuapp.com/" style="strokeWidth=1;shadow=0;dashed=0;align=center;html=1;shape=mxgraph.mockup.containers.anchor;rSize=0;fontSize=17;fontColor=#666666;align=left;" parent="fRU2j8EBehlVzUUTuP8I-1" vertex="1">
          <mxGeometry x="130" y="60" width="380" height="26" as="geometry" />
        </mxCell>
        <mxCell id="CFOayzsdlFsaBHZP5Y8I-3" value="Sign UP" style="strokeWidth=1;shadow=0;dashed=0;align=center;html=1;shape=mxgraph.mockup.buttons.button;strokeColor=#666666;fontColor=#ffffff;mainText=;buttonStyle=round;fontSize=17;fontStyle=1;fillColor=#008cff;whiteSpace=wrap;" parent="fRU2j8EBehlVzUUTuP8I-1" vertex="1">
          <mxGeometry x="670" y="590" width="150" height="50" as="geometry" />
        </mxCell>
        <mxCell id="RZg17rNPpEWOnXjQHNOh-81" value="Already a user?" style="text;html=1;strokeColor=none;fillColor=none;align=center;verticalAlign=middle;whiteSpace=wrap;rounded=0;" parent="fRU2j8EBehlVzUUTuP8I-1" vertex="1">
          <mxGeometry x="840" y="117" width="300" height="20" as="geometry" />
        </mxCell>
        <mxCell id="RZg17rNPpEWOnXjQHNOh-105" value="&lt;h1&gt;&lt;span style=&quot;font-weight: normal&quot;&gt;&lt;font style=&quot;font-size: 14px&quot;&gt;&lt;i&gt;Automatically uses inputs to log user into the page&lt;/i&gt;&lt;/font&gt;&lt;/span&gt;&lt;br&gt;&lt;/h1&gt;" style="text;html=1;strokeColor=none;fillColor=none;spacing=5;spacingTop=-20;whiteSpace=wrap;overflow=hidden;rounded=0;dashed=1;dashPattern=1 4;" parent="fRU2j8EBehlVzUUTuP8I-1" vertex="1">
          <mxGeometry x="880" y="600" width="190" height="70" as="geometry" />
        </mxCell>
        <mxCell id="-np3r3axFg-yWHaMXyCH-3" value="" style="rounded=0;whiteSpace=wrap;html=1;" vertex="1" parent="fRU2j8EBehlVzUUTuP8I-1">
          <mxGeometry y="820" width="1190" height="60" as="geometry" />
        </mxCell>
        <mxCell id="-np3r3axFg-yWHaMXyCH-4" value="&lt;font style=&quot;font-size: 36px&quot;&gt;Makers project created by dom - contact leo&lt;/font&gt;" style="text;html=1;strokeColor=none;fillColor=none;align=center;verticalAlign=middle;whiteSpace=wrap;rounded=0;" vertex="1" parent="fRU2j8EBehlVzUUTuP8I-1">
          <mxGeometry x="50" y="840" width="720" height="20" as="geometry" />
        </mxCell>
        <mxCell id="-np3r3axFg-yWHaMXyCH-5" value="" style="group" vertex="1" connectable="0" parent="fRU2j8EBehlVzUUTuP8I-1">
          <mxGeometry x="660" y="180" width="170" height="380" as="geometry" />
        </mxCell>
        <mxCell id="CFOayzsdlFsaBHZP5Y8I-2" value="********" style="strokeWidth=1;shadow=0;dashed=0;align=center;html=1;shape=mxgraph.mockup.forms.pwField;strokeColor=#999999;mainText=;align=left;fontColor=#666666;fontSize=17;spacingLeft=3;" parent="-np3r3axFg-yWHaMXyCH-5" vertex="1">
          <mxGeometry x="20" y="280" width="150" height="30" as="geometry" />
        </mxCell>
        <mxCell id="CFOayzsdlFsaBHZP5Y8I-5" value="" style="strokeWidth=1;shadow=0;dashed=0;align=center;html=1;shape=mxgraph.mockup.forms.pwField;strokeColor=#999999;mainText=;align=left;fontColor=#666666;fontSize=17;spacingLeft=3;" parent="-np3r3axFg-yWHaMXyCH-5" vertex="1">
          <mxGeometry x="20" y="210" width="150" height="30" as="geometry" />
        </mxCell>
        <mxCell id="CFOayzsdlFsaBHZP5Y8I-6" value="Email" style="text;html=1;strokeColor=none;fillColor=none;align=center;verticalAlign=middle;whiteSpace=wrap;rounded=0;" parent="-np3r3axFg-yWHaMXyCH-5" vertex="1">
          <mxGeometry y="180" width="95" height="20" as="geometry" />
        </mxCell>
        <mxCell id="CFOayzsdlFsaBHZP5Y8I-7" value="Password" style="text;html=1;strokeColor=none;fillColor=none;align=center;verticalAlign=middle;whiteSpace=wrap;rounded=0;" parent="-np3r3axFg-yWHaMXyCH-5" vertex="1">
          <mxGeometry x="10" y="260" width="95" height="20" as="geometry" />
        </mxCell>
        <mxCell id="CFOayzsdlFsaBHZP5Y8I-11" value="" style="strokeWidth=1;shadow=0;dashed=0;align=center;html=1;shape=mxgraph.mockup.forms.pwField;strokeColor=#999999;mainText=;align=left;fontColor=#666666;fontSize=17;spacingLeft=3;rotation=0;" parent="-np3r3axFg-yWHaMXyCH-5" vertex="1">
          <mxGeometry x="20" y="110" width="150" height="30" as="geometry" />
        </mxCell>
        <mxCell id="CFOayzsdlFsaBHZP5Y8I-12" value="Last Name" style="text;html=1;strokeColor=none;fillColor=none;align=center;verticalAlign=middle;whiteSpace=wrap;rounded=0;" parent="-np3r3axFg-yWHaMXyCH-5" vertex="1">
          <mxGeometry y="80" width="95" height="20" as="geometry" />
        </mxCell>
        <mxCell id="CFOayzsdlFsaBHZP5Y8I-9" value="" style="strokeWidth=1;shadow=0;dashed=0;align=center;html=1;shape=mxgraph.mockup.forms.pwField;strokeColor=#999999;mainText=;align=left;fontColor=#666666;fontSize=17;spacingLeft=3;" parent="-np3r3axFg-yWHaMXyCH-5" vertex="1">
          <mxGeometry x="20" y="30" width="150" height="30" as="geometry" />
        </mxCell>
        <mxCell id="CFOayzsdlFsaBHZP5Y8I-10" value="First Name" style="text;html=1;strokeColor=none;fillColor=none;align=center;verticalAlign=middle;whiteSpace=wrap;rounded=0;" parent="-np3r3axFg-yWHaMXyCH-5" vertex="1">
          <mxGeometry x="10" width="95" height="20" as="geometry" />
        </mxCell>
        <mxCell id="CFOayzsdlFsaBHZP5Y8I-15" value="********" style="strokeWidth=1;shadow=0;dashed=0;align=center;html=1;shape=mxgraph.mockup.forms.pwField;strokeColor=#999999;mainText=;align=left;fontColor=#666666;fontSize=17;spacingLeft=3;" parent="-np3r3axFg-yWHaMXyCH-5" vertex="1">
          <mxGeometry x="20" y="350" width="150" height="30" as="geometry" />
        </mxCell>
        <mxCell id="CFOayzsdlFsaBHZP5Y8I-16" value="Re-Enter Password" style="text;html=1;strokeColor=none;fillColor=none;align=center;verticalAlign=middle;whiteSpace=wrap;rounded=0;" parent="-np3r3axFg-yWHaMXyCH-5" vertex="1">
          <mxGeometry x="10" y="330" width="140" height="20" as="geometry" />
        </mxCell>
        <mxCell id="CFOayzsdlFsaBHZP5Y8I-14" style="edgeStyle=orthogonalEdgeStyle;rounded=0;orthogonalLoop=1;jettySize=auto;html=1;exitX=0.5;exitY=1;exitDx=0;exitDy=0;" parent="-np3r3axFg-yWHaMXyCH-5" source="CFOayzsdlFsaBHZP5Y8I-12" target="CFOayzsdlFsaBHZP5Y8I-12" edge="1">
          <mxGeometry relative="1" as="geometry" />
        </mxCell>
        <mxCell id="-np3r3axFg-yWHaMXyCH-9" value="" style="group" vertex="1" connectable="0" parent="fRU2j8EBehlVzUUTuP8I-1">
          <mxGeometry y="107" width="1190" height="40" as="geometry" />
        </mxCell>
        <mxCell id="-np3r3axFg-yWHaMXyCH-7" value="" style="rounded=0;whiteSpace=wrap;html=1;" vertex="1" parent="-np3r3axFg-yWHaMXyCH-9">
          <mxGeometry width="1190" height="40" as="geometry" />
        </mxCell>
        <mxCell id="-np3r3axFg-yWHaMXyCH-67" style="edgeStyle=orthogonalEdgeStyle;rounded=0;orthogonalLoop=1;jettySize=auto;html=1;exitX=0.75;exitY=1;exitDx=0;exitDy=0;entryX=0.765;entryY=0.825;entryDx=0;entryDy=0;entryPerimeter=0;" edge="1" parent="-np3r3axFg-yWHaMXyCH-9" source="-np3r3axFg-yWHaMXyCH-7" target="-np3r3axFg-yWHaMXyCH-7">
          <mxGeometry relative="1" as="geometry" />
        </mxCell>
        <mxCell id="-np3r3axFg-yWHaMXyCH-75" value="" style="strokeWidth=1;shadow=0;dashed=0;align=center;html=1;shape=mxgraph.mockup.forms.rrect;rSize=0;strokeColor=#999999;fillColor=#ffffff;" vertex="1" parent="fRU2j8EBehlVzUUTuP8I-1">
          <mxGeometry x="240" y="240" width="226" height="370" as="geometry" />
        </mxCell>
        <mxCell id="-np3r3axFg-yWHaMXyCH-76" value="Sign In" style="strokeWidth=1;shadow=0;dashed=0;align=center;html=1;shape=mxgraph.mockup.forms.anchor;fontSize=12;fontColor=#666666;align=left;resizeWidth=1;spacingLeft=0;" vertex="1" parent="-np3r3axFg-yWHaMXyCH-75">
          <mxGeometry width="113" height="20" relative="1" as="geometry">
            <mxPoint x="10" y="10" as="offset" />
          </mxGeometry>
        </mxCell>
        <mxCell id="-np3r3axFg-yWHaMXyCH-77" value="" style="shape=line;strokeColor=#ddeeff;strokeWidth=2;html=1;resizeWidth=1;" vertex="1" parent="-np3r3axFg-yWHaMXyCH-75">
          <mxGeometry width="203.4" height="10" relative="1" as="geometry">
            <mxPoint x="10" y="30" as="offset" />
          </mxGeometry>
        </mxCell>
        <mxCell id="-np3r3axFg-yWHaMXyCH-78" value="User Name:" style="strokeWidth=1;shadow=0;dashed=0;align=center;html=1;shape=mxgraph.mockup.forms.anchor;fontSize=12;fontColor=#666666;align=left;resizeWidth=1;spacingLeft=0;" vertex="1" parent="-np3r3axFg-yWHaMXyCH-75">
          <mxGeometry width="113" height="20" relative="1" as="geometry">
            <mxPoint x="10" y="40" as="offset" />
          </mxGeometry>
        </mxCell>
        <mxCell id="-np3r3axFg-yWHaMXyCH-79" value="johndoe" style="strokeWidth=1;shadow=0;dashed=0;align=center;html=1;shape=mxgraph.mockup.forms.rrect;rSize=0;strokeColor=#999999;fontColor=#666666;align=left;spacingLeft=5;resizeWidth=1;" vertex="1" parent="-np3r3axFg-yWHaMXyCH-75">
          <mxGeometry width="169.5" height="25" relative="1" as="geometry">
            <mxPoint x="10" y="60" as="offset" />
          </mxGeometry>
        </mxCell>
        <mxCell id="-np3r3axFg-yWHaMXyCH-80" value="Password:" style="strokeWidth=1;shadow=0;dashed=0;align=center;html=1;shape=mxgraph.mockup.forms.anchor;fontSize=12;fontColor=#666666;align=left;resizeWidth=1;spacingLeft=0;" vertex="1" parent="-np3r3axFg-yWHaMXyCH-75">
          <mxGeometry width="113" height="20" relative="1" as="geometry">
            <mxPoint x="10" y="95" as="offset" />
          </mxGeometry>
        </mxCell>
        <mxCell id="-np3r3axFg-yWHaMXyCH-81" value="********" style="strokeWidth=1;shadow=0;dashed=0;align=center;html=1;shape=mxgraph.mockup.forms.rrect;rSize=0;strokeColor=#999999;fontColor=#666666;align=left;spacingLeft=5;resizeWidth=1;" vertex="1" parent="-np3r3axFg-yWHaMXyCH-75">
          <mxGeometry width="169.5" height="25" relative="1" as="geometry">
            <mxPoint x="10" y="115" as="offset" />
          </mxGeometry>
        </mxCell>
        <mxCell id="-np3r3axFg-yWHaMXyCH-82" value="SIGN IN" style="strokeWidth=1;shadow=0;dashed=0;align=center;html=1;shape=mxgraph.mockup.forms.rrect;rSize=5;strokeColor=none;fontColor=#ffffff;fillColor=#66bbff;fontSize=16;fontStyle=1;" vertex="1" parent="-np3r3axFg-yWHaMXyCH-75">
          <mxGeometry y="1" width="80" height="30" relative="1" as="geometry">
            <mxPoint x="20" y="-150" as="offset" />
          </mxGeometry>
        </mxCell>
        <mxCell id="-np3r3axFg-yWHaMXyCH-83" value="" style="shape=line;strokeColor=#ddeeff;strokeWidth=2;html=1;resizeWidth=1;" vertex="1" parent="-np3r3axFg-yWHaMXyCH-75">
          <mxGeometry y="1" width="203.4" height="10" relative="1" as="geometry">
            <mxPoint x="10" y="-90" as="offset" />
          </mxGeometry>
        </mxCell>
        <mxCell id="-np3r3axFg-yWHaMXyCH-87" value="" style="rounded=0;whiteSpace=wrap;html=1;" vertex="1" parent="fRU2j8EBehlVzUUTuP8I-1">
          <mxGeometry x="530" y="180" width="10" height="480" as="geometry" />
        </mxCell>
        <mxCell id="RZg17rNPpEWOnXjQHNOh-79" value="" style="endArrow=classic;html=1;entryX=0.091;entryY=-0.006;entryDx=0;entryDy=0;entryPerimeter=0;" parent="1" source="CFOayzsdlFsaBHZP5Y8I-3" target="RZg17rNPpEWOnXjQHNOh-59" edge="1">
          <mxGeometry width="50" height="50" relative="1" as="geometry">
            <mxPoint x="600" y="750" as="sourcePoint" />
            <mxPoint x="90" y="1040" as="targetPoint" />
          </mxGeometry>
        </mxCell>
        <mxCell id="-np3r3axFg-yWHaMXyCH-17" value="" style="group" vertex="1" connectable="0" parent="1">
          <mxGeometry x="-100" y="1050" width="1190" height="880" as="geometry" />
        </mxCell>
        <mxCell id="RZg17rNPpEWOnXjQHNOh-59" value="" style="strokeWidth=1;shadow=0;dashed=0;align=center;html=1;shape=mxgraph.mockup.containers.browserWindow;rSize=0;strokeColor=#666666;strokeColor2=#008cff;strokeColor3=#c4c4c4;mainText=,;recursiveResize=0;" parent="-np3r3axFg-yWHaMXyCH-17" vertex="1">
          <mxGeometry width="1190" height="880" as="geometry" />
        </mxCell>
        <mxCell id="-np3r3axFg-yWHaMXyCH-16" value="" style="rounded=0;whiteSpace=wrap;html=1;fillColor=#dae8fc;strokeColor=#6c8ebf;" vertex="1" parent="RZg17rNPpEWOnXjQHNOh-59">
          <mxGeometry x="290" y="350" width="600" height="480" as="geometry" />
        </mxCell>
        <mxCell id="RZg17rNPpEWOnXjQHNOh-60" value="Page 1" style="strokeWidth=1;shadow=0;dashed=0;align=center;html=1;shape=mxgraph.mockup.containers.anchor;fontSize=17;fontColor=#666666;align=left;" parent="RZg17rNPpEWOnXjQHNOh-59" vertex="1">
          <mxGeometry x="60" y="12" width="110" height="26" as="geometry" />
        </mxCell>
        <mxCell id="RZg17rNPpEWOnXjQHNOh-61" value="https://acebook-team1.herokuapp.com/posts" style="strokeWidth=1;shadow=0;dashed=0;align=center;html=1;shape=mxgraph.mockup.containers.anchor;rSize=0;fontSize=17;fontColor=#666666;align=left;" parent="RZg17rNPpEWOnXjQHNOh-59" vertex="1">
          <mxGeometry x="130" y="60" width="380" height="26" as="geometry" />
        </mxCell>
        <mxCell id="RZg17rNPpEWOnXjQHNOh-71" style="edgeStyle=orthogonalEdgeStyle;rounded=0;orthogonalLoop=1;jettySize=auto;html=1;exitX=0.5;exitY=1;exitDx=0;exitDy=0;" parent="RZg17rNPpEWOnXjQHNOh-59" edge="1">
          <mxGeometry relative="1" as="geometry">
            <mxPoint x="697.5" y="217.00000000000045" as="sourcePoint" />
            <mxPoint x="697.5" y="217.00000000000045" as="targetPoint" />
          </mxGeometry>
        </mxCell>
        <mxCell id="RZg17rNPpEWOnXjQHNOh-103" value="&lt;span style=&quot;font-weight: normal&quot;&gt;&lt;font style=&quot;font-size: 9px&quot;&gt;Post&lt;br&gt;&lt;/font&gt;&lt;/span&gt;" style="strokeWidth=1;shadow=0;dashed=0;align=center;html=1;shape=mxgraph.mockup.buttons.button;strokeColor=#666666;fontColor=#ffffff;mainText=;buttonStyle=round;fontSize=17;fontStyle=1;fillColor=#008cff;whiteSpace=wrap;dashPattern=1 4;" parent="RZg17rNPpEWOnXjQHNOh-59" vertex="1">
          <mxGeometry x="700" y="300" width="160" height="20" as="geometry" />
        </mxCell>
        <mxCell id="RZg17rNPpEWOnXjQHNOh-130" value="" style="group" parent="RZg17rNPpEWOnXjQHNOh-59" vertex="1" connectable="0">
          <mxGeometry x="450" y="360" width="410" height="90" as="geometry" />
        </mxCell>
        <mxCell id="RZg17rNPpEWOnXjQHNOh-131" value="" style="rounded=1;whiteSpace=wrap;html=1;" parent="RZg17rNPpEWOnXjQHNOh-130" vertex="1">
          <mxGeometry x="-130" width="540" height="90" as="geometry" />
        </mxCell>
        <mxCell id="RZg17rNPpEWOnXjQHNOh-132" value="&lt;font style=&quot;font-size: 8px&quot;&gt;Date&lt;/font&gt;" style="text;html=1;strokeColor=none;fillColor=none;align=center;verticalAlign=middle;whiteSpace=wrap;rounded=0;" parent="RZg17rNPpEWOnXjQHNOh-130" vertex="1">
          <mxGeometry x="310" y="70" width="110" height="20" as="geometry" />
        </mxCell>
        <mxCell id="RZg17rNPpEWOnXjQHNOh-134" value="&lt;span&gt;Last night I had I slept :)&lt;/span&gt;" style="rounded=0;whiteSpace=wrap;html=1;dashed=1;dashPattern=1 4;" parent="RZg17rNPpEWOnXjQHNOh-130" vertex="1">
          <mxGeometry x="-100" y="23" width="480" height="47" as="geometry" />
        </mxCell>
        <mxCell id="RZg17rNPpEWOnXjQHNOh-135" value="&lt;span style=&quot;font-weight: normal&quot;&gt;&lt;font style=&quot;font-size: 9px&quot;&gt;Delete&lt;/font&gt;&lt;/span&gt;" style="strokeWidth=1;shadow=0;dashed=0;align=center;html=1;shape=mxgraph.mockup.buttons.button;strokeColor=#666666;fontColor=#ffffff;mainText=;buttonStyle=round;fontSize=17;fontStyle=1;fillColor=#008cff;whiteSpace=wrap;dashPattern=1 4;" parent="RZg17rNPpEWOnXjQHNOh-59" vertex="1">
          <mxGeometry x="780" y="460" width="80" height="20" as="geometry" />
        </mxCell>
        <mxCell id="RZg17rNPpEWOnXjQHNOh-136" value="&lt;span style=&quot;font-weight: normal&quot;&gt;&lt;font style=&quot;font-size: 9px&quot;&gt;Update&lt;/font&gt;&lt;/span&gt;" style="strokeWidth=1;shadow=0;dashed=0;align=center;html=1;shape=mxgraph.mockup.buttons.button;strokeColor=#666666;fontColor=#ffffff;mainText=;buttonStyle=round;fontSize=17;fontStyle=1;fillColor=#008cff;whiteSpace=wrap;dashPattern=1 4;" parent="RZg17rNPpEWOnXjQHNOh-59" vertex="1">
          <mxGeometry x="682" y="459" width="80" height="20" as="geometry" />
        </mxCell>
        <mxCell id="RZg17rNPpEWOnXjQHNOh-137" value="" style="group" parent="RZg17rNPpEWOnXjQHNOh-59" vertex="1" connectable="0">
          <mxGeometry x="450" y="510" width="410" height="90" as="geometry" />
        </mxCell>
        <mxCell id="RZg17rNPpEWOnXjQHNOh-138" value="" style="rounded=1;whiteSpace=wrap;html=1;" parent="RZg17rNPpEWOnXjQHNOh-137" vertex="1">
          <mxGeometry x="-130" width="540" height="90" as="geometry" />
        </mxCell>
        <mxCell id="RZg17rNPpEWOnXjQHNOh-139" value="&lt;font style=&quot;font-size: 8px&quot;&gt;Date&lt;/font&gt;" style="text;html=1;strokeColor=none;fillColor=none;align=center;verticalAlign=middle;whiteSpace=wrap;rounded=0;" parent="RZg17rNPpEWOnXjQHNOh-137" vertex="1">
          <mxGeometry x="310" y="70" width="110" height="20" as="geometry" />
        </mxCell>
        <mxCell id="RZg17rNPpEWOnXjQHNOh-141" value="&lt;span&gt;Last night I had I slept :)&lt;/span&gt;" style="rounded=0;whiteSpace=wrap;html=1;dashed=1;dashPattern=1 4;" parent="RZg17rNPpEWOnXjQHNOh-137" vertex="1">
          <mxGeometry x="-100" y="23" width="480" height="47" as="geometry" />
        </mxCell>
        <mxCell id="RZg17rNPpEWOnXjQHNOh-144" value="" style="group" parent="RZg17rNPpEWOnXjQHNOh-59" vertex="1" connectable="0">
          <mxGeometry x="450" y="660" width="410" height="90" as="geometry" />
        </mxCell>
        <mxCell id="RZg17rNPpEWOnXjQHNOh-145" value="" style="rounded=1;whiteSpace=wrap;html=1;" parent="RZg17rNPpEWOnXjQHNOh-144" vertex="1">
          <mxGeometry x="-130" width="540" height="90" as="geometry" />
        </mxCell>
        <mxCell id="RZg17rNPpEWOnXjQHNOh-146" value="&lt;font style=&quot;font-size: 8px&quot;&gt;Date&lt;/font&gt;" style="text;html=1;strokeColor=none;fillColor=none;align=center;verticalAlign=middle;whiteSpace=wrap;rounded=0;" parent="RZg17rNPpEWOnXjQHNOh-144" vertex="1">
          <mxGeometry x="310" y="70" width="110" height="20" as="geometry" />
        </mxCell>
        <mxCell id="RZg17rNPpEWOnXjQHNOh-148" value="&lt;span&gt;Last night I had I slept :)&lt;/span&gt;" style="rounded=0;whiteSpace=wrap;html=1;dashed=1;dashPattern=1 4;" parent="RZg17rNPpEWOnXjQHNOh-144" vertex="1">
          <mxGeometry x="-100" y="23" width="480" height="47" as="geometry" />
        </mxCell>
        <mxCell id="RZg17rNPpEWOnXjQHNOh-149" value="&lt;span style=&quot;font-weight: normal&quot;&gt;&lt;font style=&quot;font-size: 9px&quot;&gt;Delete&lt;/font&gt;&lt;/span&gt;" style="strokeWidth=1;shadow=0;dashed=0;align=center;html=1;shape=mxgraph.mockup.buttons.button;strokeColor=#666666;fontColor=#ffffff;mainText=;buttonStyle=round;fontSize=17;fontStyle=1;fillColor=#008cff;whiteSpace=wrap;dashPattern=1 4;" parent="RZg17rNPpEWOnXjQHNOh-59" vertex="1">
          <mxGeometry x="780" y="760" width="80" height="20" as="geometry" />
        </mxCell>
        <mxCell id="RZg17rNPpEWOnXjQHNOh-150" value="&lt;span style=&quot;font-weight: normal&quot;&gt;&lt;font style=&quot;font-size: 9px&quot;&gt;Update&lt;/font&gt;&lt;/span&gt;" style="strokeWidth=1;shadow=0;dashed=0;align=center;html=1;shape=mxgraph.mockup.buttons.button;strokeColor=#666666;fontColor=#ffffff;mainText=;buttonStyle=round;fontSize=17;fontStyle=1;fillColor=#008cff;whiteSpace=wrap;dashPattern=1 4;" parent="RZg17rNPpEWOnXjQHNOh-59" vertex="1">
          <mxGeometry x="682" y="759" width="80" height="20" as="geometry" />
        </mxCell>
        <mxCell id="RZg17rNPpEWOnXjQHNOh-208" value="" style="verticalLabelPosition=bottom;shadow=0;dashed=0;align=center;html=1;verticalAlign=top;strokeWidth=1;shape=mxgraph.mockup.misc.loading_circle_2;pointerEvents=1" parent="RZg17rNPpEWOnXjQHNOh-59" vertex="1">
          <mxGeometry x="1120" y="450" width="90" height="90" as="geometry" />
        </mxCell>
        <mxCell id="RZg17rNPpEWOnXjQHNOh-210" value="" style="curved=1;endArrow=classic;html=1;exitX=0.981;exitY=0.625;exitDx=0;exitDy=0;exitPerimeter=0;entryX=0.178;entryY=0.25;entryDx=0;entryDy=0;entryPerimeter=0;" parent="RZg17rNPpEWOnXjQHNOh-59" source="RZg17rNPpEWOnXjQHNOh-149" target="RZg17rNPpEWOnXjQHNOh-208" edge="1">
          <mxGeometry width="50" height="50" relative="1" as="geometry">
            <mxPoint x="860" y="370" as="sourcePoint" />
            <mxPoint x="910" y="320" as="targetPoint" />
            <Array as="points">
              <mxPoint x="990" y="760" />
              <mxPoint x="1090" y="700" />
              <mxPoint x="1050" y="650" />
              <mxPoint x="858" y="570" />
            </Array>
          </mxGeometry>
        </mxCell>
        <mxCell id="-np3r3axFg-yWHaMXyCH-10" value="" style="rounded=0;whiteSpace=wrap;html=1;" vertex="1" parent="RZg17rNPpEWOnXjQHNOh-59">
          <mxGeometry y="130" width="1190" height="50" as="geometry" />
        </mxCell>
        <mxCell id="-np3r3axFg-yWHaMXyCH-11" value="" style="endArrow=none;html=1;" edge="1" parent="RZg17rNPpEWOnXjQHNOh-59" source="-np3r3axFg-yWHaMXyCH-12" target="-np3r3axFg-yWHaMXyCH-10">
          <mxGeometry width="50" height="50" relative="1" as="geometry">
            <mxPoint x="770" y="144.71476510067123" as="sourcePoint" />
            <mxPoint x="-200" y="1050" as="targetPoint" />
            <Array as="points" />
          </mxGeometry>
        </mxCell>
        <mxCell id="-np3r3axFg-yWHaMXyCH-12" value="Sign out" style="strokeWidth=1;shadow=0;dashed=0;align=center;html=1;shape=mxgraph.mockup.buttons.button;strokeColor=#666666;fontColor=#ffffff;mainText=;buttonStyle=round;fontSize=17;fontStyle=1;fillColor=#008cff;whiteSpace=wrap;" vertex="1" parent="RZg17rNPpEWOnXjQHNOh-59">
          <mxGeometry x="990" y="139" width="180" height="31" as="geometry" />
        </mxCell>
        <mxCell id="-np3r3axFg-yWHaMXyCH-13" value="My Posts" style="strokeWidth=1;shadow=0;dashed=0;align=center;html=1;shape=mxgraph.mockup.buttons.button;strokeColor=#666666;fontColor=#ffffff;mainText=;buttonStyle=round;fontSize=17;fontStyle=1;fillColor=#008cff;whiteSpace=wrap;" vertex="1" parent="RZg17rNPpEWOnXjQHNOh-59">
          <mxGeometry x="790" y="139" width="180" height="31" as="geometry" />
        </mxCell>
        <mxCell id="RZg17rNPpEWOnXjQHNOh-100" value="" style="group" parent="RZg17rNPpEWOnXjQHNOh-59" vertex="1" connectable="0">
          <mxGeometry x="450" y="200" width="410" height="90" as="geometry" />
        </mxCell>
        <mxCell id="RZg17rNPpEWOnXjQHNOh-83" value="" style="rounded=1;whiteSpace=wrap;html=1;" parent="RZg17rNPpEWOnXjQHNOh-100" vertex="1">
          <mxGeometry x="-130" width="540" height="90" as="geometry" />
        </mxCell>
        <mxCell id="RZg17rNPpEWOnXjQHNOh-99" value="Placeholder for Dom to say he done all the work" style="rounded=0;whiteSpace=wrap;html=1;dashed=1;dashPattern=1 4;" parent="RZg17rNPpEWOnXjQHNOh-100" vertex="1">
          <mxGeometry x="-100" y="23" width="480" height="47" as="geometry" />
        </mxCell>
        <mxCell id="RZg17rNPpEWOnXjQHNOh-147" value="My Post 2" style="text;html=1;strokeColor=none;fillColor=none;align=center;verticalAlign=middle;whiteSpace=wrap;rounded=0;" parent="-np3r3axFg-yWHaMXyCH-17" vertex="1">
          <mxGeometry x="330" y="660" width="110" height="17" as="geometry" />
        </mxCell>
        <mxCell id="RZg17rNPpEWOnXjQHNOh-140" value="Someone Else&#39;s Posts" style="text;html=1;strokeColor=none;fillColor=none;align=center;verticalAlign=middle;whiteSpace=wrap;rounded=0;" parent="-np3r3axFg-yWHaMXyCH-17" vertex="1">
          <mxGeometry x="330" y="516" width="160" height="17" as="geometry" />
        </mxCell>
        <mxCell id="RZg17rNPpEWOnXjQHNOh-133" value="Mys Posts" style="text;html=1;strokeColor=none;fillColor=none;align=center;verticalAlign=middle;whiteSpace=wrap;rounded=0;" parent="-np3r3axFg-yWHaMXyCH-17" vertex="1">
          <mxGeometry x="330" y="366" width="110" height="17" as="geometry" />
        </mxCell>
        <mxCell id="RZg17rNPpEWOnXjQHNOh-202" value="" style="endArrow=classic;html=1;startArrow=none;entryX=0.509;entryY=-0.006;entryDx=0;entryDy=0;entryPerimeter=0;" parent="-np3r3axFg-yWHaMXyCH-17" edge="1" target="-np3r3axFg-yWHaMXyCH-20">
          <mxGeometry width="50" height="50" relative="1" as="geometry">
            <mxPoint x="800" y="155" as="sourcePoint" />
            <mxPoint x="-200" y="1050" as="targetPoint" />
            <Array as="points">
              <mxPoint x="-140" y="150" />
            </Array>
          </mxGeometry>
        </mxCell>
        <mxCell id="-np3r3axFg-yWHaMXyCH-19" value="" style="group" vertex="1" connectable="0" parent="1">
          <mxGeometry x="-880" y="2190" width="1240" height="880" as="geometry" />
        </mxCell>
        <mxCell id="-np3r3axFg-yWHaMXyCH-20" value="" style="strokeWidth=1;shadow=0;dashed=0;align=center;html=1;shape=mxgraph.mockup.containers.browserWindow;rSize=0;strokeColor=#666666;strokeColor2=#008cff;strokeColor3=#c4c4c4;mainText=,;recursiveResize=0;container=0;" vertex="1" parent="-np3r3axFg-yWHaMXyCH-19">
          <mxGeometry x="30" y="60" width="1190" height="880" as="geometry" />
        </mxCell>
        <mxCell id="-np3r3axFg-yWHaMXyCH-53" value="Name of Poster" style="text;html=1;strokeColor=none;fillColor=none;align=center;verticalAlign=middle;whiteSpace=wrap;rounded=0;" vertex="1" parent="-np3r3axFg-yWHaMXyCH-19">
          <mxGeometry x="330" y="660" width="110" height="17" as="geometry" />
        </mxCell>
        <mxCell id="-np3r3axFg-yWHaMXyCH-54" value="Name of Poster" style="text;html=1;strokeColor=none;fillColor=none;align=center;verticalAlign=middle;whiteSpace=wrap;rounded=0;" vertex="1" parent="-np3r3axFg-yWHaMXyCH-19">
          <mxGeometry x="330" y="516" width="110" height="17" as="geometry" />
        </mxCell>
        <mxCell id="-np3r3axFg-yWHaMXyCH-55" value="Name of Poster" style="text;html=1;strokeColor=none;fillColor=none;align=center;verticalAlign=middle;whiteSpace=wrap;rounded=0;" vertex="1" parent="-np3r3axFg-yWHaMXyCH-19">
          <mxGeometry x="330" y="366" width="110" height="17" as="geometry" />
        </mxCell>
        <mxCell id="-np3r3axFg-yWHaMXyCH-21" value="" style="rounded=0;whiteSpace=wrap;html=1;fillColor=#dae8fc;strokeColor=#6c8ebf;" vertex="1" parent="-np3r3axFg-yWHaMXyCH-19">
          <mxGeometry x="320" y="410" width="600" height="480" as="geometry" />
        </mxCell>
        <mxCell id="-np3r3axFg-yWHaMXyCH-22" value="Page 1" style="strokeWidth=1;shadow=0;dashed=0;align=center;html=1;shape=mxgraph.mockup.containers.anchor;fontSize=17;fontColor=#666666;align=left;" vertex="1" parent="-np3r3axFg-yWHaMXyCH-19">
          <mxGeometry x="90" y="72" width="110" height="26" as="geometry" />
        </mxCell>
        <mxCell id="-np3r3axFg-yWHaMXyCH-23" value="https://acebook-team1.herokuapp.com/posts" style="strokeWidth=1;shadow=0;dashed=0;align=center;html=1;shape=mxgraph.mockup.containers.anchor;rSize=0;fontSize=17;fontColor=#666666;align=left;" vertex="1" parent="-np3r3axFg-yWHaMXyCH-19">
          <mxGeometry x="160" y="120" width="380" height="26" as="geometry" />
        </mxCell>
        <mxCell id="-np3r3axFg-yWHaMXyCH-24" style="edgeStyle=orthogonalEdgeStyle;rounded=0;orthogonalLoop=1;jettySize=auto;html=1;exitX=0.5;exitY=1;exitDx=0;exitDy=0;" edge="1" parent="-np3r3axFg-yWHaMXyCH-19">
          <mxGeometry x="-860" y="2170" as="geometry">
            <mxPoint x="727.5" y="277.00000000000045" as="sourcePoint" />
            <mxPoint x="727.5" y="277.00000000000045" as="targetPoint" />
          </mxGeometry>
        </mxCell>
        <mxCell id="-np3r3axFg-yWHaMXyCH-25" value="&lt;span style=&quot;font-weight: normal&quot;&gt;&lt;font style=&quot;font-size: 9px&quot;&gt;Delete&lt;/font&gt;&lt;/span&gt;" style="strokeWidth=1;shadow=0;dashed=0;align=center;html=1;shape=mxgraph.mockup.buttons.button;strokeColor=#666666;fontColor=#ffffff;mainText=;buttonStyle=round;fontSize=17;fontStyle=1;fillColor=#008cff;whiteSpace=wrap;dashPattern=1 4;" vertex="1" parent="-np3r3axFg-yWHaMXyCH-19">
          <mxGeometry x="730" y="360" width="160" height="20" as="geometry" />
        </mxCell>
        <mxCell id="-np3r3axFg-yWHaMXyCH-26" value="" style="group" vertex="1" connectable="0" parent="-np3r3axFg-yWHaMXyCH-19">
          <mxGeometry x="480" y="420" width="410" height="90" as="geometry" />
        </mxCell>
        <mxCell id="-np3r3axFg-yWHaMXyCH-27" value="" style="rounded=1;whiteSpace=wrap;html=1;" vertex="1" parent="-np3r3axFg-yWHaMXyCH-26">
          <mxGeometry x="-130" width="540" height="90" as="geometry" />
        </mxCell>
        <mxCell id="-np3r3axFg-yWHaMXyCH-28" value="&lt;font style=&quot;font-size: 8px&quot;&gt;Date&lt;/font&gt;" style="text;html=1;strokeColor=none;fillColor=none;align=center;verticalAlign=middle;whiteSpace=wrap;rounded=0;" vertex="1" parent="-np3r3axFg-yWHaMXyCH-26">
          <mxGeometry x="310" y="70" width="110" height="20" as="geometry" />
        </mxCell>
        <mxCell id="-np3r3axFg-yWHaMXyCH-29" value="&lt;span&gt;Last night I had I slept :)&lt;/span&gt;" style="rounded=0;whiteSpace=wrap;html=1;dashed=1;dashPattern=1 4;" vertex="1" parent="-np3r3axFg-yWHaMXyCH-26">
          <mxGeometry x="-100" y="23" width="480" height="47" as="geometry" />
        </mxCell>
        <mxCell id="-np3r3axFg-yWHaMXyCH-30" value="&lt;span style=&quot;font-weight: normal&quot;&gt;&lt;font style=&quot;font-size: 9px&quot;&gt;Delete&lt;/font&gt;&lt;/span&gt;" style="strokeWidth=1;shadow=0;dashed=0;align=center;html=1;shape=mxgraph.mockup.buttons.button;strokeColor=#666666;fontColor=#ffffff;mainText=;buttonStyle=round;fontSize=17;fontStyle=1;fillColor=#008cff;whiteSpace=wrap;dashPattern=1 4;" vertex="1" parent="-np3r3axFg-yWHaMXyCH-19">
          <mxGeometry x="810" y="520" width="80" height="20" as="geometry" />
        </mxCell>
        <mxCell id="-np3r3axFg-yWHaMXyCH-31" value="&lt;span style=&quot;font-weight: normal&quot;&gt;&lt;font style=&quot;font-size: 9px&quot;&gt;Update&lt;/font&gt;&lt;/span&gt;" style="strokeWidth=1;shadow=0;dashed=0;align=center;html=1;shape=mxgraph.mockup.buttons.button;strokeColor=#666666;fontColor=#ffffff;mainText=;buttonStyle=round;fontSize=17;fontStyle=1;fillColor=#008cff;whiteSpace=wrap;dashPattern=1 4;" vertex="1" parent="-np3r3axFg-yWHaMXyCH-19">
          <mxGeometry x="712" y="519" width="80" height="20" as="geometry" />
        </mxCell>
        <mxCell id="-np3r3axFg-yWHaMXyCH-32" value="" style="group" vertex="1" connectable="0" parent="-np3r3axFg-yWHaMXyCH-19">
          <mxGeometry x="480" y="570" width="410" height="90" as="geometry" />
        </mxCell>
        <mxCell id="-np3r3axFg-yWHaMXyCH-33" value="" style="rounded=1;whiteSpace=wrap;html=1;" vertex="1" parent="-np3r3axFg-yWHaMXyCH-32">
          <mxGeometry x="-130" width="540" height="90" as="geometry" />
        </mxCell>
        <mxCell id="-np3r3axFg-yWHaMXyCH-34" value="&lt;font style=&quot;font-size: 8px&quot;&gt;Date&lt;/font&gt;" style="text;html=1;strokeColor=none;fillColor=none;align=center;verticalAlign=middle;whiteSpace=wrap;rounded=0;" vertex="1" parent="-np3r3axFg-yWHaMXyCH-32">
          <mxGeometry x="310" y="70" width="110" height="20" as="geometry" />
        </mxCell>
        <mxCell id="-np3r3axFg-yWHaMXyCH-35" value="&lt;span&gt;Last night I had I slept :)&lt;/span&gt;" style="rounded=0;whiteSpace=wrap;html=1;dashed=1;dashPattern=1 4;" vertex="1" parent="-np3r3axFg-yWHaMXyCH-32">
          <mxGeometry x="-100" y="23" width="480" height="47" as="geometry" />
        </mxCell>
        <mxCell id="-np3r3axFg-yWHaMXyCH-36" value="&lt;span style=&quot;font-weight: normal&quot;&gt;&lt;font style=&quot;font-size: 9px&quot;&gt;Delete&lt;/font&gt;&lt;/span&gt;" style="strokeWidth=1;shadow=0;dashed=0;align=center;html=1;shape=mxgraph.mockup.buttons.button;strokeColor=#666666;fontColor=#ffffff;mainText=;buttonStyle=round;fontSize=17;fontStyle=1;fillColor=#008cff;whiteSpace=wrap;dashPattern=1 4;" vertex="1" parent="-np3r3axFg-yWHaMXyCH-19">
          <mxGeometry x="810" y="670" width="80" height="20" as="geometry" />
        </mxCell>
        <mxCell id="-np3r3axFg-yWHaMXyCH-37" value="&lt;span style=&quot;font-weight: normal&quot;&gt;&lt;font style=&quot;font-size: 9px&quot;&gt;Update&lt;/font&gt;&lt;/span&gt;" style="strokeWidth=1;shadow=0;dashed=0;align=center;html=1;shape=mxgraph.mockup.buttons.button;strokeColor=#666666;fontColor=#ffffff;mainText=;buttonStyle=round;fontSize=17;fontStyle=1;fillColor=#008cff;whiteSpace=wrap;dashPattern=1 4;" vertex="1" parent="-np3r3axFg-yWHaMXyCH-19">
          <mxGeometry x="712" y="669" width="80" height="20" as="geometry" />
        </mxCell>
        <mxCell id="-np3r3axFg-yWHaMXyCH-38" value="" style="group" vertex="1" connectable="0" parent="-np3r3axFg-yWHaMXyCH-19">
          <mxGeometry x="480" y="720" width="410" height="90" as="geometry" />
        </mxCell>
        <mxCell id="-np3r3axFg-yWHaMXyCH-39" value="" style="rounded=1;whiteSpace=wrap;html=1;" vertex="1" parent="-np3r3axFg-yWHaMXyCH-38">
          <mxGeometry x="-130" width="540" height="90" as="geometry" />
        </mxCell>
        <mxCell id="-np3r3axFg-yWHaMXyCH-40" value="&lt;font style=&quot;font-size: 8px&quot;&gt;Date&lt;/font&gt;" style="text;html=1;strokeColor=none;fillColor=none;align=center;verticalAlign=middle;whiteSpace=wrap;rounded=0;" vertex="1" parent="-np3r3axFg-yWHaMXyCH-38">
          <mxGeometry x="310" y="70" width="110" height="20" as="geometry" />
        </mxCell>
        <mxCell id="-np3r3axFg-yWHaMXyCH-41" value="&lt;span&gt;Last night I had I slept :)&lt;/span&gt;" style="rounded=0;whiteSpace=wrap;html=1;dashed=1;dashPattern=1 4;" vertex="1" parent="-np3r3axFg-yWHaMXyCH-38">
          <mxGeometry x="-100" y="23" width="480" height="47" as="geometry" />
        </mxCell>
        <mxCell id="-np3r3axFg-yWHaMXyCH-42" value="&lt;span style=&quot;font-weight: normal&quot;&gt;&lt;font style=&quot;font-size: 9px&quot;&gt;Delete&lt;/font&gt;&lt;/span&gt;" style="strokeWidth=1;shadow=0;dashed=0;align=center;html=1;shape=mxgraph.mockup.buttons.button;strokeColor=#666666;fontColor=#ffffff;mainText=;buttonStyle=round;fontSize=17;fontStyle=1;fillColor=#008cff;whiteSpace=wrap;dashPattern=1 4;" vertex="1" parent="-np3r3axFg-yWHaMXyCH-19">
          <mxGeometry x="810" y="820" width="80" height="20" as="geometry" />
        </mxCell>
        <mxCell id="-np3r3axFg-yWHaMXyCH-43" value="&lt;span style=&quot;font-weight: normal&quot;&gt;&lt;font style=&quot;font-size: 9px&quot;&gt;Update&lt;/font&gt;&lt;/span&gt;" style="strokeWidth=1;shadow=0;dashed=0;align=center;html=1;shape=mxgraph.mockup.buttons.button;strokeColor=#666666;fontColor=#ffffff;mainText=;buttonStyle=round;fontSize=17;fontStyle=1;fillColor=#008cff;whiteSpace=wrap;dashPattern=1 4;" vertex="1" parent="-np3r3axFg-yWHaMXyCH-19">
          <mxGeometry x="712" y="819" width="80" height="20" as="geometry" />
        </mxCell>
        <mxCell id="-np3r3axFg-yWHaMXyCH-44" value="" style="verticalLabelPosition=bottom;shadow=0;dashed=0;align=center;html=1;verticalAlign=top;strokeWidth=1;shape=mxgraph.mockup.misc.loading_circle_2;pointerEvents=1" vertex="1" parent="-np3r3axFg-yWHaMXyCH-19">
          <mxGeometry x="1150" y="479.5" width="90" height="90" as="geometry" />
        </mxCell>
        <mxCell id="-np3r3axFg-yWHaMXyCH-46" value="" style="rounded=0;whiteSpace=wrap;html=1;" vertex="1" parent="-np3r3axFg-yWHaMXyCH-19">
          <mxGeometry x="30" y="190" width="1190" height="50" as="geometry" />
        </mxCell>
        <mxCell id="-np3r3axFg-yWHaMXyCH-47" value="" style="endArrow=none;html=1;" edge="1" parent="-np3r3axFg-yWHaMXyCH-19" source="-np3r3axFg-yWHaMXyCH-48" target="-np3r3axFg-yWHaMXyCH-46">
          <mxGeometry x="-860" y="2170" width="50" height="50" as="geometry">
            <mxPoint x="800" y="204.71476510067123" as="sourcePoint" />
            <mxPoint x="-170" y="1110" as="targetPoint" />
            <Array as="points" />
          </mxGeometry>
        </mxCell>
        <mxCell id="-np3r3axFg-yWHaMXyCH-48" value="Sign out" style="strokeWidth=1;shadow=0;dashed=0;align=center;html=1;shape=mxgraph.mockup.buttons.button;strokeColor=#666666;fontColor=#ffffff;mainText=;buttonStyle=round;fontSize=17;fontStyle=1;fillColor=#008cff;whiteSpace=wrap;" vertex="1" parent="-np3r3axFg-yWHaMXyCH-19">
          <mxGeometry x="1020" y="199" width="180" height="31" as="geometry" />
        </mxCell>
        <mxCell id="-np3r3axFg-yWHaMXyCH-49" value="All Posts" style="strokeWidth=1;shadow=0;dashed=0;align=center;html=1;shape=mxgraph.mockup.buttons.button;strokeColor=#666666;fontColor=#ffffff;mainText=;buttonStyle=round;fontSize=17;fontStyle=1;fillColor=#008cff;whiteSpace=wrap;" vertex="1" parent="-np3r3axFg-yWHaMXyCH-19">
          <mxGeometry x="820" y="199" width="180" height="31" as="geometry" />
        </mxCell>
        <mxCell id="-np3r3axFg-yWHaMXyCH-50" value="" style="group" vertex="1" connectable="0" parent="-np3r3axFg-yWHaMXyCH-19">
          <mxGeometry x="480" y="260" width="410" height="90" as="geometry" />
        </mxCell>
        <mxCell id="-np3r3axFg-yWHaMXyCH-51" value="" style="rounded=1;whiteSpace=wrap;html=1;" vertex="1" parent="-np3r3axFg-yWHaMXyCH-50">
          <mxGeometry x="-130" width="540" height="90" as="geometry" />
        </mxCell>
        <mxCell id="-np3r3axFg-yWHaMXyCH-52" value="Placeholder for Dom to say he done all the work" style="rounded=0;whiteSpace=wrap;html=1;dashed=1;dashPattern=1 4;" vertex="1" parent="-np3r3axFg-yWHaMXyCH-50">
          <mxGeometry x="-100" y="23" width="480" height="47" as="geometry" />
        </mxCell>
        <mxCell id="-np3r3axFg-yWHaMXyCH-58" value="&lt;h1&gt;&lt;font style=&quot;font-size: 18px ; font-weight: normal&quot;&gt;&lt;i&gt;&lt;u&gt;Your page is your filtered post&lt;/u&gt;&lt;/i&gt;&lt;/font&gt;&lt;/h1&gt;" style="text;html=1;strokeColor=none;fillColor=none;align=center;verticalAlign=middle;whiteSpace=wrap;rounded=0;" vertex="1" parent="-np3r3axFg-yWHaMXyCH-19">
          <mxGeometry x="70" y="459.5" width="170" height="130" as="geometry" />
        </mxCell>
        <mxCell id="-np3r3axFg-yWHaMXyCH-64" value="" style="curved=1;endArrow=classic;html=1;exitX=0.981;exitY=0.625;exitDx=0;exitDy=0;exitPerimeter=0;entryX=0.178;entryY=0.25;entryDx=0;entryDy=0;entryPerimeter=0;" edge="1" parent="-np3r3axFg-yWHaMXyCH-19">
          <mxGeometry width="50" height="50" relative="1" as="geometry">
            <mxPoint x="890.4800000000005" y="829" as="sourcePoint" />
            <mxPoint x="1168.0199999999995" y="529" as="targetPoint" />
            <Array as="points">
              <mxPoint x="1022" y="816.5" />
              <mxPoint x="1122" y="756.5" />
              <mxPoint x="1082" y="706.5" />
              <mxPoint x="890" y="626.5" />
            </Array>
          </mxGeometry>
        </mxCell>
        <mxCell id="-np3r3axFg-yWHaMXyCH-65" value="" style="endArrow=classic;html=1;" edge="1" parent="1" source="-np3r3axFg-yWHaMXyCH-49">
          <mxGeometry width="50" height="50" relative="1" as="geometry">
            <mxPoint x="339.99999999999955" y="2559.4838709677415" as="sourcePoint" />
            <mxPoint x="520" y="1933" as="targetPoint" />
            <Array as="points">
              <mxPoint x="140" y="2520" />
              <mxPoint x="520" y="2520" />
            </Array>
          </mxGeometry>
        </mxCell>
        <mxCell id="-np3r3axFg-yWHaMXyCH-66" value="" style="endArrow=classic;html=1;exitX=1.019;exitY=0.516;exitDx=0;exitDy=0;exitPerimeter=0;" edge="1" parent="1" source="-np3r3axFg-yWHaMXyCH-48" target="fRU2j8EBehlVzUUTuP8I-1">
          <mxGeometry width="50" height="50" relative="1" as="geometry">
            <mxPoint x="560" y="2030" as="sourcePoint" />
            <mxPoint x="1370" y="650" as="targetPoint" />
            <Array as="points">
              <mxPoint x="1370" y="2405" />
              <mxPoint x="1400" y="480" />
            </Array>
          </mxGeometry>
        </mxCell>
        <mxCell id="-np3r3axFg-yWHaMXyCH-88" value="" style="endArrow=classic;html=1;entryX=1;entryY=0.75;entryDx=0;entryDy=0;exitX=0.9;exitY=-0.123;exitDx=0;exitDy=0;exitPerimeter=0;" edge="1" parent="1" source="-np3r3axFg-yWHaMXyCH-10">
          <mxGeometry width="50" height="50" relative="1" as="geometry">
            <mxPoint x="1050" y="1197.9999999999995" as="sourcePoint" />
            <mxPoint x="449.99999999999955" y="905" as="targetPoint" />
            <Array as="points" />
          </mxGeometry>
        </mxCell>
      </root>
    </mxGraphModel>
  </diagram>
  <diagram id="KNB5S7gQFDJw3jn4BaVH" name="Page-2">
    <mxGraphModel dx="946" dy="614" grid="1" gridSize="10" guides="1" tooltips="1" connect="1" arrows="1" fold="1" page="1" pageScale="1" pageWidth="827" pageHeight="1169" math="0" shadow="0">
      <root>
        <mxCell id="8nQKc0yFpOZ4MjRWKmC1-0" />
        <mxCell id="8nQKc0yFpOZ4MjRWKmC1-1" parent="8nQKc0yFpOZ4MjRWKmC1-0" />
      </root>
    </mxGraphModel>
  </diagram>
  <diagram id="P-uuLig9CYGVfjrqcIUK" name="Page-3">
    <mxGraphModel dx="946" dy="614" grid="1" gridSize="10" guides="1" tooltips="1" connect="1" arrows="1" fold="1" page="1" pageScale="1" pageWidth="827" pageHeight="1169" math="0" shadow="0">
      <root>
        <mxCell id="QsGwaEMwJw8wSICsJNUq-0" />
        <mxCell id="QsGwaEMwJw8wSICsJNUq-1" parent="QsGwaEMwJw8wSICsJNUq-0" />
      </root>
    </mxGraphModel>
  </diagram>
</mxfile>
